<?xml version="1.0" encoding="UTF-8" standalone="no"?>
<!DOCTYPE svg PUBLIC "-//W3C//DTD SVG 1.1//EN"
 "http://www.w3.org/Graphics/SVG/1.1/DTD/svg11.dtd">
<!-- Generated by graphviz version 6.0.1 (20220911.1526)
 -->
<!-- Title: Message Collecting Pages: 1 -->
<svg width="1049pt" height="1087pt"
 viewBox="0.00 0.00 1049.00 1087.00" xmlns="http://www.w3.org/2000/svg" xmlns:xlink="http://www.w3.org/1999/xlink">
<g id="graph0" class="graph" transform="scale(1 1) rotate(0) translate(144 943)">
<title>Message Collecting</title>
<polygon fill="white" stroke="none" points="-144,144 -144,-943 905,-943 905,144 -144,144"/>
<text text-anchor="middle" x="380.5" y="-9" font-family="Sans-Serif" font-size="15.00" fill="#2d3436">Message Collecting</text>
<g id="clust4" class="cluster">
<title>cluster_Data Lake</title>
<path fill="#e5f5fd" stroke="#aeb6be" d="M485,-436C485,-436 578,-436 578,-436 584,-436 590,-442 590,-448 590,-448 590,-779 590,-779 590,-785 584,-791 578,-791 578,-791 485,-791 485,-791 479,-791 473,-785 473,-779 473,-779 473,-448 473,-448 473,-442 479,-436 485,-436"/>
<text text-anchor="middle" x="507" y="-777.4" font-family="Sans-Serif" font-size="12.00" fill="#2d3436">Data Lake</text>
</g>
<g id="clust1" class="cluster">
<title>cluster_Source of Data</title>
<path fill="#e5f5fd" stroke="#aeb6be" d="M20,-150C20,-150 113,-150 113,-150 119,-150 125,-156 125,-162 125,-162 125,-673 125,-673 125,-679 119,-685 113,-685 113,-685 20,-685 20,-685 14,-685 8,-679 8,-673 8,-673 8,-162 8,-162 8,-156 14,-150 20,-150"/>
<text text-anchor="middle" x="55.5" y="-671.4" font-family="Sans-Serif" font-size="12.00" fill="#2d3436">Source of Data</text>
</g>
<g id="clust2" class="cluster">
<title>cluster_Targets</title>
<path fill="#e5f5fd" stroke="#aeb6be" d="M322,-322C322,-322 431,-322 431,-322 437,-322 443,-328 443,-334 443,-334 443,-522 443,-522 443,-528 437,-534 431,-534 431,-534 322,-534 322,-534 316,-534 310,-528 310,-522 310,-522 310,-334 310,-334 310,-328 316,-322 322,-322"/>
<text text-anchor="middle" x="338" y="-520.4" font-family="Sans-Serif" font-size="12.00" fill="#2d3436">Targets</text>
</g>
<g id="clust3" class="cluster">
<title>cluster_Data Flow</title>
<path fill="#ebf3e7" stroke="#aeb6be" d="M330,-330C330,-330 423,-330 423,-330 429,-330 435,-336 435,-342 435,-342 435,-493 435,-493 435,-499 429,-505 423,-505 423,-505 330,-505 330,-505 324,-505 318,-499 318,-493 318,-493 318,-342 318,-342 318,-336 324,-330 330,-330"/>
<text text-anchor="middle" x="352.5" y="-491.4" font-family="Sans-Serif" font-size="12.00" fill="#2d3436">Data Flow</text>
</g>
<g id="clust5" class="cluster">
<title>cluster_Event Driven</title>
<path fill="#e5f5fd" stroke="#aeb6be" d="M477,-216C477,-216 741,-216 741,-216 747,-216 753,-222 753,-228 753,-228 753,-416 753,-416 753,-422 747,-428 741,-428 741,-428 477,-428 477,-428 471,-428 465,-422 465,-416 465,-416 465,-228 465,-228 465,-222 471,-216 477,-216"/>
<text text-anchor="middle" x="507" y="-414.4" font-family="Sans-Serif" font-size="12.00" fill="#2d3436">Event Driven</text>
</g>
<g id="clust6" class="cluster">
<title>cluster_Processing</title>
<path fill="#ebf3e7" stroke="#aeb6be" d="M485,-224C485,-224 733,-224 733,-224 739,-224 745,-230 745,-236 745,-236 745,-387 745,-387 745,-393 739,-399 733,-399 733,-399 485,-399 485,-399 479,-399 473,-393 473,-387 473,-387 473,-236 473,-236 473,-230 479,-224 485,-224"/>
<text text-anchor="middle" x="509.5" y="-385.4" font-family="Sans-Serif" font-size="12.00" fill="#2d3436">Processing</text>
</g>
<g id="clust7" class="cluster">
<title>cluster_Serverless</title>
<path fill="#e5f5fd" stroke="#aeb6be" d="M485,-33C485,-33 733,-33 733,-33 739,-33 745,-39 745,-45 745,-45 745,-196 745,-196 745,-202 739,-208 733,-208 733,-208 485,-208 485,-208 479,-208 473,-202 473,-196 473,-196 473,-45 473,-45 473,-39 479,-33 485,-33"/>
<text text-anchor="middle" x="508" y="-194.4" font-family="Sans-Serif" font-size="12.00" fill="#2d3436">Serverless</text>
</g>
<!-- aba0beac0bf0425b816f82e2bbf0125e -->
<g id="node1" class="node">
<title>aba0beac0bf0425b816f82e2bbf0125e</title>
<image xlink:href="C:\repos\CloudBudgetPipelineGCP\User Stories\diagrams\source_code\venv\lib\site-packages\resources/gcp/analytics\pubsub.png" width="101px" height="101px" preserveAspectRatio="xMinYMin meet" x="171" y="-457.5"/>
<text text-anchor="middle" x="221.5" y="-342.1" font-family="Sans-Serif" font-size="13.00" fill="#2d3436">pubsub</text>
</g>
<!-- a7b322cce37d4ff6af9c41d371621ccb -->
<g id="node5" class="node">
<title>a7b322cce37d4ff6af9c41d371621ccb</title>
<image xlink:href="C:\repos\CloudBudgetPipelineGCP\User Stories\diagrams\source_code\venv\lib\site-packages\resources/gcp/analytics\dataflow.png" width="101px" height="101px" preserveAspectRatio="xMinYMin meet" x="326" y="-457.5"/>
<text text-anchor="middle" x="376.5" y="-342.1" font-family="Sans-Serif" font-size="13.00" fill="#2d3436">data flow</text>
</g>
<!-- aba0beac0bf0425b816f82e2bbf0125e&#45;&gt;a7b322cce37d4ff6af9c41d371621ccb -->
<g id="edge10" class="edge">
<title>aba0beac0bf0425b816f82e2bbf0125e&#45;&gt;a7b322cce37d4ff6af9c41d371621ccb</title>
<path fill="none" stroke="#7b8894" d="M272.25,-407C272.25,-407 315.9,-407 315.9,-407"/>
<polygon fill="#7b8894" stroke="#7b8894" points="315.9,-410.5 325.9,-407 315.9,-403.5 315.9,-410.5"/>
</g>
<!-- d515eeaf532744d788000af64db0f2ba -->
<g id="node2" class="node">
<title>d515eeaf532744d788000af64db0f2ba</title>
<image xlink:href="C:\repos\CloudBudgetPipelineGCP\User Stories\diagrams\source_code\venv\lib\site-packages\resources/gcp/iot\iot-core.png" width="101px" height="101px" preserveAspectRatio="xMinYMin meet" x="16" y="-637.5"/>
<text text-anchor="middle" x="66.5" y="-522.1" font-family="Sans-Serif" font-size="13.00" fill="#2d3436">core1</text>
</g>
<!-- d515eeaf532744d788000af64db0f2ba&#45;&gt;aba0beac0bf0425b816f82e2bbf0125e -->
<g id="edge1" class="edge">
<title>d515eeaf532744d788000af64db0f2ba&#45;&gt;aba0beac0bf0425b816f82e2bbf0125e</title>
<path fill="none" stroke="#7b8894" d="M117.42,-550C162.77,-550 222,-550 222,-550 222,-550 222,-485.57 222,-485.57"/>
<polygon fill="#7b8894" stroke="#7b8894" points="225.5,-485.57 222,-475.57 218.5,-485.57 225.5,-485.57"/>
</g>
<!-- 397997bdc21e4b738831bca608312483 -->
<g id="node3" class="node">
<title>397997bdc21e4b738831bca608312483</title>
<image xlink:href="C:\repos\CloudBudgetPipelineGCP\User Stories\diagrams\source_code\venv\lib\site-packages\resources/gcp/iot\iot-core.png" width="101px" height="101px" preserveAspectRatio="xMinYMin meet" x="16" y="-457.5"/>
<text text-anchor="middle" x="66.5" y="-342.1" font-family="Sans-Serif" font-size="13.00" fill="#2d3436">core2</text>
</g>
<!-- 397997bdc21e4b738831bca608312483&#45;&gt;aba0beac0bf0425b816f82e2bbf0125e -->
<g id="edge2" class="edge">
<title>397997bdc21e4b738831bca608312483&#45;&gt;aba0beac0bf0425b816f82e2bbf0125e</title>
<path fill="none" stroke="#7b8894" d="M117.25,-407C117.25,-407 160.9,-407 160.9,-407"/>
<polygon fill="#7b8894" stroke="#7b8894" points="160.9,-410.5 170.9,-407 160.9,-403.5 160.9,-410.5"/>
</g>
<!-- 7bf1c03511294c2889a25808388a30dc -->
<g id="node4" class="node">
<title>7bf1c03511294c2889a25808388a30dc</title>
<image xlink:href="C:\repos\CloudBudgetPipelineGCP\User Stories\diagrams\source_code\venv\lib\site-packages\resources/gcp/iot\iot-core.png" width="101px" height="101px" preserveAspectRatio="xMinYMin meet" x="16" y="-277.5"/>
<text text-anchor="middle" x="66.5" y="-162.1" font-family="Sans-Serif" font-size="13.00" fill="#2d3436">core3</text>
</g>
<!-- 7bf1c03511294c2889a25808388a30dc&#45;&gt;aba0beac0bf0425b816f82e2bbf0125e -->
<g id="edge3" class="edge">
<title>7bf1c03511294c2889a25808388a30dc&#45;&gt;aba0beac0bf0425b816f82e2bbf0125e</title>
<path fill="none" stroke="#7b8894" d="M117.42,-264C162.77,-264 222,-264 222,-264 222,-264 222,-328.43 222,-328.43"/>
<polygon fill="#7b8894" stroke="#7b8894" points="218.5,-328.43 222,-338.43 225.5,-328.43 218.5,-328.43"/>
</g>
<!-- 306cc2a106b645ada981c7ae1cedfa6e -->
<g id="node6" class="node">
<title>306cc2a106b645ada981c7ae1cedfa6e</title>
<image xlink:href="C:\repos\CloudBudgetPipelineGCP\User Stories\diagrams\source_code\venv\lib\site-packages\resources/gcp/analytics\bigquery.png" width="101px" height="101px" preserveAspectRatio="xMinYMin meet" x="481" y="-743.5"/>
<text text-anchor="middle" x="531.5" y="-628.1" font-family="Sans-Serif" font-size="13.00" fill="#2d3436">bq</text>
</g>
<!-- a7b322cce37d4ff6af9c41d371621ccb&#45;&gt;306cc2a106b645ada981c7ae1cedfa6e -->
<g id="edge4" class="edge">
<title>a7b322cce37d4ff6af9c41d371621ccb&#45;&gt;306cc2a106b645ada981c7ae1cedfa6e</title>
<path fill="none" stroke="#7b8894" d="M377,-475.65C377,-544.38 377,-640 377,-640 377,-640 470.91,-640 470.91,-640"/>
<polygon fill="#7b8894" stroke="#7b8894" points="470.91,-643.5 480.91,-640 470.91,-636.5 470.91,-643.5"/>
</g>
<!-- 720b7d24ea5a4f509d06ef0df7dcfbf0 -->
<g id="node7" class="node">
<title>720b7d24ea5a4f509d06ef0df7dcfbf0</title>
<image xlink:href="C:\repos\CloudBudgetPipelineGCP\User Stories\diagrams\source_code\venv\lib\site-packages\resources/gcp/storage\storage.png" width="101px" height="101px" preserveAspectRatio="xMinYMin meet" x="481" y="-563.5"/>
<text text-anchor="middle" x="531.5" y="-448.1" font-family="Sans-Serif" font-size="13.00" fill="#2d3436">storage</text>
</g>
<!-- a7b322cce37d4ff6af9c41d371621ccb&#45;&gt;720b7d24ea5a4f509d06ef0df7dcfbf0 -->
<g id="edge5" class="edge">
<title>a7b322cce37d4ff6af9c41d371621ccb&#45;&gt;720b7d24ea5a4f509d06ef0df7dcfbf0</title>
<path fill="none" stroke="#7b8894" d="M427.25,-460C427.25,-460 470.9,-460 470.9,-460"/>
<polygon fill="#7b8894" stroke="#7b8894" points="470.9,-463.5 480.9,-460 470.9,-456.5 470.9,-463.5"/>
</g>
<!-- 14f655e63bb347cb9f10d4e5fba28f14 -->
<g id="node8" class="node">
<title>14f655e63bb347cb9f10d4e5fba28f14</title>
<image xlink:href="C:\repos\CloudBudgetPipelineGCP\User Stories\diagrams\source_code\venv\lib\site-packages\resources/gcp/compute\app-engine.png" width="101px" height="101px" preserveAspectRatio="xMinYMin meet" x="481" y="-351.5"/>
<text text-anchor="middle" x="531.5" y="-236.1" font-family="Sans-Serif" font-size="13.00" fill="#2d3436">engine</text>
</g>
<!-- a7b322cce37d4ff6af9c41d371621ccb&#45;&gt;14f655e63bb347cb9f10d4e5fba28f14 -->
<g id="edge6" class="edge">
<title>a7b322cce37d4ff6af9c41d371621ccb&#45;&gt;14f655e63bb347cb9f10d4e5fba28f14</title>
<path fill="none" stroke="#7b8894" d="M427.25,-354C427.25,-354 470.9,-354 470.9,-354"/>
<polygon fill="#7b8894" stroke="#7b8894" points="470.9,-357.5 480.9,-354 470.9,-350.5 470.9,-357.5"/>
</g>
<!-- 95a2dbe1444444f08b3d4c61f17c7ca4 -->
<g id="node10" class="node">
<title>95a2dbe1444444f08b3d4c61f17c7ca4</title>
<image xlink:href="C:\repos\CloudBudgetPipelineGCP\User Stories\diagrams\source_code\venv\lib\site-packages\resources/gcp/compute\functions.png" width="101px" height="101px" preserveAspectRatio="xMinYMin meet" x="481" y="-160.5"/>
<text text-anchor="middle" x="531.5" y="-45.1" font-family="Sans-Serif" font-size="13.00" fill="#2d3436">func</text>
</g>
<!-- a7b322cce37d4ff6af9c41d371621ccb&#45;&gt;95a2dbe1444444f08b3d4c61f17c7ca4 -->
<g id="edge8" class="edge">
<title>a7b322cce37d4ff6af9c41d371621ccb&#45;&gt;95a2dbe1444444f08b3d4c61f17c7ca4</title>
<path fill="none" stroke="#7b8894" d="M377,-338.34C377,-267.88 377,-168.5 377,-168.5 377,-168.5 470.91,-168.5 470.91,-168.5"/>
<polygon fill="#7b8894" stroke="#7b8894" points="470.91,-172 480.91,-168.5 470.91,-165 470.91,-172"/>
</g>
<!-- 344a7fc8c4ae433eb908624908ced973 -->
<g id="node9" class="node">
<title>344a7fc8c4ae433eb908624908ced973</title>
<image xlink:href="C:\repos\CloudBudgetPipelineGCP\User Stories\diagrams\source_code\venv\lib\site-packages\resources/gcp/database\bigtable.png" width="101px" height="101px" preserveAspectRatio="xMinYMin meet" x="636" y="-351.5"/>
<text text-anchor="middle" x="686.5" y="-236.1" font-family="Sans-Serif" font-size="13.00" fill="#2d3436">bigtable</text>
</g>
<!-- 14f655e63bb347cb9f10d4e5fba28f14&#45;&gt;344a7fc8c4ae433eb908624908ced973 -->
<g id="edge7" class="edge">
<title>14f655e63bb347cb9f10d4e5fba28f14&#45;&gt;344a7fc8c4ae433eb908624908ced973</title>
<path fill="none" stroke="#7b8894" d="M582.25,-301C582.25,-301 625.9,-301 625.9,-301"/>
<polygon fill="#7b8894" stroke="#7b8894" points="625.9,-304.5 635.9,-301 625.9,-297.5 625.9,-304.5"/>
</g>
<!-- e8c871d2f35a47dc8b7265736e885978 -->
<g id="node11" class="node">
<title>e8c871d2f35a47dc8b7265736e885978</title>
<image xlink:href="C:\repos\CloudBudgetPipelineGCP\User Stories\diagrams\source_code\venv\lib\site-packages\resources/gcp/compute\app-engine.png" width="101px" height="101px" preserveAspectRatio="xMinYMin meet" x="636" y="-160.5"/>
<text text-anchor="middle" x="686.5" y="-45.1" font-family="Sans-Serif" font-size="13.00" fill="#2d3436">appengine</text>
</g>
<!-- 95a2dbe1444444f08b3d4c61f17c7ca4&#45;&gt;e8c871d2f35a47dc8b7265736e885978 -->
<g id="edge9" class="edge">
<title>95a2dbe1444444f08b3d4c61f17c7ca4&#45;&gt;e8c871d2f35a47dc8b7265736e885978</title>
<path fill="none" stroke="#7b8894" d="M582.25,-110C582.25,-110 625.9,-110 625.9,-110"/>
<polygon fill="#7b8894" stroke="#7b8894" points="625.9,-113.5 635.9,-110 625.9,-106.5 625.9,-113.5"/>
</g>
</g>
</svg>
